<svg width="24" height="24" viewBox="0 0 24 24" fill="none" xmlns="http://www.w3.org/2000/svg">
<path d="M11.9852 15.4078L15.2272 19.0938C16.4272 20.4588 17.0282 21.1418 17.6572 20.9748C18.2852 20.8088 18.5012 19.9108 18.9322 18.1138L21.3222 8.14579C21.9872 5.37779 22.3192 3.9948 21.5812 3.3118C20.8432 2.6288 19.5642 3.1368 17.0062 4.1518L5.14023 8.86479C3.09423 9.67779 2.07123 10.0838 2.00623 10.7818C1.99857 10.8529 1.99857 10.9247 2.00623 10.9958C2.06923 11.6948 3.09023 12.1038 5.13423 12.9228C6.05923 13.2938 6.52223 13.4798 6.85423 13.8348C6.89156 13.8748 6.92756 13.9161 6.96223 13.9588C7.26823 14.3388 7.39823 14.8388 7.65923 15.8348L8.14823 17.7018C8.40123 18.6718 8.52823 19.1578 8.86123 19.2238C9.19423 19.2898 9.48323 18.8878 10.0622 18.0828L11.9852 15.4078ZM11.9852 15.4078L11.6682 15.0778C11.3062 14.6998 11.1252 14.5118 11.1252 14.2778C11.1252 14.0438 11.3052 13.8548 11.6682 13.4778L15.2412 9.75379" stroke="black" stroke-width="1.5" stroke-linecap="round" stroke-linejoin="round"/>
</svg>
