<svg width="24" height="24" viewBox="0 0 24 24" fill="none" xmlns="http://www.w3.org/2000/svg">
<path fill-rule="evenodd" clip-rule="evenodd" d="M17.4642 8.79194C17.6342 9.22194 18.0442 9.50194 18.5042 9.50194V9.51194C18.9742 9.51194 19.3742 9.23194 19.5442 8.80194L19.8842 7.93194C20.0242 7.57194 20.3142 7.27194 20.6842 7.13194L21.5442 6.79194C21.9742 6.62194 22.2542 6.21194 22.2542 5.75194C22.2542 5.29194 21.9842 4.89194 21.5542 4.72194L20.6842 4.38194C20.5025 4.31159 20.3375 4.20411 20.1998 4.06635C20.062 3.9286 19.9545 3.76361 19.8842 3.58194L19.5442 2.71194C19.4626 2.50244 19.3197 2.32244 19.1342 2.19554C18.9486 2.06863 18.729 2.00073 18.5042 2.00073C18.2794 2.00073 18.0598 2.06863 17.8742 2.19554C17.6887 2.32244 17.5457 2.50244 17.4642 2.71194L17.1242 3.57194C17.0538 3.75361 16.9464 3.9186 16.8086 4.05635C16.6708 4.19411 16.5059 4.30159 16.3242 4.37194L15.4642 4.71194C15.0342 4.88194 14.7542 5.29194 14.7542 5.75194C14.7542 6.21194 15.0242 6.61194 15.4542 6.78194L16.3242 7.12194C16.6842 7.26194 16.9842 7.55194 17.1242 7.92194L17.4642 8.79194ZM18.5042 7.33194C18.2142 6.62194 17.6342 6.04194 16.9242 5.75194C17.6342 5.46194 18.2042 4.88194 18.5042 4.17194C18.7942 4.88194 19.3742 5.46194 20.0842 5.75194C19.3742 6.04194 18.8042 6.62194 18.5042 7.33194ZM8.90219 21.4099C9.16219 22.0699 9.79219 22.4999 10.5022 22.4999C11.2122 22.4999 11.8422 22.0699 12.1022 21.4099L13.0122 19.0999C13.5322 17.7999 14.5622 16.7599 15.8622 16.2499L18.1722 15.3399C18.8322 15.0799 19.2622 14.4499 19.2622 13.7399C19.2622 13.0299 18.8322 12.3999 18.1722 12.1399L15.8622 11.2299C15.2184 10.9734 14.6337 10.5884 14.1437 10.0984C13.6537 9.60842 13.2687 9.02369 13.0122 8.37994L12.1022 6.06994C11.8422 5.40994 11.2122 4.97994 10.5022 4.97994C9.79219 4.97994 9.16219 5.40994 8.90219 6.06994L7.99219 8.37994C7.73568 9.02369 7.35068 9.60842 6.86067 10.0984C6.37067 10.5884 5.78594 10.9734 5.14219 11.2299L2.83219 12.1399C2.17219 12.3999 1.74219 13.0299 1.74219 13.7399C1.74219 14.4499 2.17219 15.0799 2.83219 15.3399L5.14219 16.2499C6.44219 16.7699 7.48219 17.7999 7.99219 19.0999L8.90219 21.4099ZM10.3022 6.63994C10.3422 6.51994 10.4322 6.49994 10.5022 6.49994C10.5722 6.49994 10.6622 6.52994 10.7022 6.63994L11.6122 8.94994C11.9421 9.78473 12.4398 10.5429 13.0745 11.1777C13.7092 11.8124 14.4674 12.3101 15.3022 12.6399L17.6122 13.5499C17.7322 13.5899 17.7522 13.6799 17.7522 13.7499C17.7522 13.8199 17.7222 13.9099 17.6122 13.9499L15.3022 14.8599C14.4674 15.1898 13.7092 15.6875 13.0745 16.3222C12.4398 16.9569 11.9421 17.7151 11.6122 18.5499L10.7022 20.8599C10.6122 21.0899 10.3922 21.0899 10.3022 20.8599L9.39219 18.5499C9.0623 17.7151 8.5646 16.9569 7.9299 16.3222C7.29519 15.6875 6.53698 15.1898 5.70219 14.8599L3.39219 13.9499C3.27219 13.9099 3.25219 13.8199 3.25219 13.7499C3.25219 13.6799 3.28219 13.5899 3.39219 13.5499L5.70219 12.6399C6.53698 12.3101 7.29519 11.8124 7.9299 11.1777C8.5646 10.5429 9.0623 9.78473 9.39219 8.94994L10.3022 6.63994Z" fill="url(#paint0_radial_8_473)"/>
<defs>
<radialGradient id="paint0_radial_8_473" cx="0" cy="0" r="1" gradientUnits="userSpaceOnUse" gradientTransform="translate(7.19069 24.0788) rotate(-90) scale(20.3162 18.9075)">
<stop stop-color="#FFDD55"/>
<stop offset="0.1" stop-color="#FFDD55"/>
<stop offset="0.5" stop-color="#FF543E"/>
<stop offset="1" stop-color="#C837AB"/>
</radialGradient>
</defs>
</svg>
