<svg width="82" height="40" viewBox="0 0 82 40" fill="none" xmlns="http://www.w3.org/2000/svg">
<path d="M74.7854 39.105V16.555L71.6504 0.605011H75.0054L77.7004 14.355H77.8104L80.4504 0.605011H81.1654L78.1404 16.555V39.105H74.7854Z" fill="black"/>
<path d="M62.8654 0.605011V38.555H70.5654V39.105H59.5654V0.605011H62.8654Z" fill="black"/>
<path d="M53.5558 0.605011H54.1058V39.105L44.5908 9.18501H44.4258V39.105H43.8758V6.98501L41.8408 0.605011H45.3608L53.3908 26.235H53.5008L53.5558 0.605011Z" fill="black"/>
<path d="M0 19.855C0 9.185 9.13 0 19.8 0C30.47 0 39.655 9.185 39.655 19.855C39.655 30.525 30.47 39.655 19.8 39.655C9.13 39.655 0 30.525 0 19.855ZM4.4 19.855C4.4 30.525 9.13 39.105 19.8 39.105C30.47 39.105 35.255 30.525 35.255 19.855C35.255 9.185 30.47 0.549999 19.8 0.549999C9.13 0.549999 4.4 9.185 4.4 19.855Z" fill="black"/>
</svg>
