<svg width="24" height="24" viewBox="0 0 24 24" fill="none" xmlns="http://www.w3.org/2000/svg">
<path d="M6.70659 5.293C6.51799 5.11084 6.26539 5.01004 6.00319 5.01232C5.74099 5.0146 5.49018 5.11977 5.30477 5.30518C5.11937 5.49058 5.0142 5.7414 5.01192 6.00359C5.00964 6.26579 5.11044 6.51839 5.29259 6.707L10.5856 12L5.29259 17.293C5.19708 17.3852 5.1209 17.4956 5.06849 17.6176C5.01608 17.7396 4.9885 17.8708 4.98734 18.0036C4.98619 18.1364 5.01149 18.2681 5.06177 18.3909C5.11205 18.5138 5.18631 18.6255 5.2802 18.7194C5.37409 18.8133 5.48574 18.8875 5.60864 18.9378C5.73154 18.9881 5.86321 19.0134 5.99599 19.0122C6.12877 19.0111 6.25999 18.9835 6.382 18.9311C6.504 18.8787 6.61435 18.8025 6.70659 18.707L11.9996 13.414L17.2926 18.707C17.4812 18.8892 17.7338 18.9899 17.996 18.9877C18.2582 18.9854 18.509 18.8802 18.6944 18.6948C18.8798 18.5094 18.985 18.2586 18.9873 17.9964C18.9895 17.7342 18.8888 17.4816 18.7066 17.293L13.4136 12L18.7066 6.707C18.8888 6.51839 18.9895 6.26579 18.9873 6.00359C18.985 5.7414 18.8798 5.49058 18.6944 5.30518C18.509 5.11977 18.2582 5.0146 17.996 5.01232C17.7338 5.01004 17.4812 5.11084 17.2926 5.293L11.9996 10.586L6.70659 5.293Z" fill="black"/>
</svg>
